_________________________  Visit us at _________________________
  
http://p2pdl.com  ____________________________  http://p2pdl.com


Chinese Zodiac 2012 BRRip 720p x264 AAC - PRiSTiNE


Genre: Action | Adventure
Plot: A man searches the world for a set of mystic artifacts - 12 bronze heads of the animals from
the Chinese zodiac. .
Director: Jackie Chan
Stars: Jackie Chan, Qi Shu, Oliver Platt.
Rated: N/a.


IMDb: 
http://www.imdb.com/title/tt1424310/

Trailer:


Format                         : MPEG-4
File size                      : 697 MiB
Duration                       : 2h 2mn
Overall bit rate               : 793 Kbps
Video Format                   : AVC
Video Bit rate                 : 706 Kbps
Width                          : 1 280 pixels
Height                         : 528 pixels
Display aspect ratio           : 2.40:1
Frame rate mode                : Constant
Frame rate                     : 24.000 fps
Stream size                    : 620 MiB (89%)
Audio Format                   : AAC
Audio Bit rate                 : 84.0 Kbps
Channel(s)                     : 2 channels
Channel positions              : Front: L R
Sampling rate                  : 48.0 KHz
Stream size                    : 73.8 MiB (11%)
Language                       : Chinese
Subtitle                       : Yes(English)
Source                         : 720p.BluRay.DTS.x264-PHD(Thanks)

Screenshots:
 
http://cdn.piczend.com/images/QBVvtl5H/1362835317_tinybaychinesezodiac201.jpg


----------------------------------------------------------------------------------------------------


Encoded using revolutionary 10bit encoding, which enables us to provide you more crispier and
sharper images at small sizes, just make sure you follow our instructions without a fault.
Recommend to you to use latest version of VLC player. Install K-Lite Codec Pack or shark007 codecs
in case of any kind of problem in playback (For non-VLC Media Player users). Alternatively, install
Core AVC codecs, the fastest decoder that there is coupled with Community Center Codec Pack and play
on Windows Media Player Classic.


Encoder Notes: Looking For Early Access To Anything You Can Provide DVDScr, R5, DVDR, BluRay, Direct
Audio, Early Music Releases, Seedboxes, Dedicated Servers anything u can provide, Advance / Promo CDs/
DVDs. If You Got anything to offer contact me at "prg@hush.com".